<svg t="1732623906743" class="icon" viewBox="0 0 1024 1024" version="1.1" xmlns="http://www.w3.org/2000/svg" p-id="8873" data-spm-anchor-id="a313x.search_index.0.i3.5ae13a81W0XQB9" width="200" height="200"><path d="M128 128h768v768H128z" fill="#409EFF" fill-opacity="0" p-id="8874" data-spm-anchor-id="a313x.search_index.0.i4.5ae13a81W0XQB9" class="selected"></path><path d="M512 896c-212.1 0-384-171.9-384-384s171.9-384 384-384 384 171.9 384 384-171.9 384-384 384z" fill="#409EFF" p-id="8875" data-spm-anchor-id="a313x.search_index.0.i2.5ae13a81W0XQB9" class=""></path><path d="M515.2 179.2c-185.6 0-336 150.4-336 336s150.4 336 336 336 336-150.4 336-336-150.4-336-336-336z" fill="#409EFF" p-id="8876" data-spm-anchor-id="a313x.search_index.0.i1.5ae13a81W0XQB9" class="selected"></path><path d="M569 512c0 26.4-21.4 47.8-47.8 47.8s-47.8-21.4-47.8-47.8 21.4-47.8 47.8-47.8S569 485.6 569 512zM346.6 640.9c-2.1-3-3.3-6.7-3.3-10.7 0-10.4 8.5-18.9 18.9-18.9 5.4 0 10.4 2.3 13.8 6v0.1c1.1 1.1 2 2.4 2.7 3.8 33.7 45.4 86.9 72.2 143.5 72.2 98.9 0 179-80.3 179-179.4s-80.2-179.4-179-179.4c-87.8 0-160.8 63.3-176 146.9h27.9c4.4 0 8 3.6 8 8 0 1.5-0.4 2.9-1.2 4.2l-49.2 81.1c-2.3 3.8-7.2 5-11 2.7-1.1-0.7-2-1.6-2.7-2.7l-49.2-81.2c-2.3-3.8-1.1-8.7 2.7-11 1.3-0.8 2.7-1.2 4.2-1.2h30.4C321.1 376 411.5 295 520.9 295 640.8 295 738 392.4 738 512.5S640.8 730 520.9 730c-69 0-133.7-32.8-174.5-88.1-0.1-0.2 0-0.5 0.2-1z" fill="#FFFFFF" p-id="8877"></path></svg>