<?xml version="1.0" standalone="no"?><!DOCTYPE svg PUBLIC "-//W3C//DTD SVG 1.1//EN" "http://www.w3.org/Graphics/SVG/1.1/DTD/svg11.dtd"><svg t="1733507195480" class="icon" viewBox="0 0 1028 1024" version="1.1" xmlns="http://www.w3.org/2000/svg" p-id="4658" data-spm-anchor-id="a313x.search_index.0.i18.1dad3a815Jt0qq" xmlns:xlink="http://www.w3.org/1999/xlink" width="200.78125" height="200"><path d="M398.669179 828.739561l391.782659-170.466465-391.782659 170.43492z" fill="#FFFFFF" p-id="4659"></path><path d="M309.776786 895.456173a28.043058 28.043058 0 0 1-11.198297-53.751824L848.746069 602.344702a28.074603 28.074603 0 0 1 22.396593 51.417531L320.943538 893.153425a28.074603 28.074603 0 0 1-11.166752 2.334292" fill="#d6204b" p-id="4660" data-spm-anchor-id="a313x.search_index.0.i17.1dad3a815Jt0qq" class=""></path><path d="M743.355903 562.787903L155.902727 817.635898" fill="#FFFFFF" p-id="4661"></path><path d="M155.934272 845.7105A28.074603 28.074603 0 0 1 144.767519 791.927132L732.189151 537.079137a28.043058 28.043058 0 0 1 22.333504 51.449076L167.069479 843.407752a27.91688 27.91688 0 0 1-11.135207 2.302748" fill="#d6204b" p-id="4662" data-spm-anchor-id="a313x.search_index.0.i19.1dad3a815Jt0qq" class=""></path><path d="M202.178505 716.630417l322.069319 139.552857 322.00623-139.552857-322.037775-139.552857L202.178505 716.630417z m322.069319 198.162533a27.664524 27.664524 0 0 1-11.166752-2.334293L120.509801 742.339182a28.043058 28.043058 0 0 1 0-51.417531L513.081072 520.802177a28.011514 28.011514 0 0 1 22.270415 0l392.571271 170.119474a28.011514 28.011514 0 0 1 0 51.417531L535.351487 912.490201a27.443713 27.443713 0 0 1-11.135208 2.334293z" fill="#d6204b" p-id="4663" data-spm-anchor-id="a313x.search_index.0.i16.1dad3a815Jt0qq" class=""></path><path d="M916.756006 548.782146L524.216279 718.901621 131.645008 548.782146 524.216279 378.694216z" fill="#ffffff" p-id="4664" data-spm-anchor-id="a313x.search_index.0.i14.1dad3a815Jt0qq" class=""></path><path d="M202.178505 548.81369l322.069319 139.552857 322.00623-139.552857-322.037775-139.552856L202.178505 548.81369z m322.069319 198.099444a28.106147 28.106147 0 0 1-11.166752-2.271203L120.509801 574.522456a28.043058 28.043058 0 0 1 0-51.417531L513.081072 352.98545a27.759158 27.759158 0 0 1 22.270415 0l392.571271 170.08793a28.043058 28.043058 0 0 1 0 51.449076L535.351487 744.641931a27.885336 27.885336 0 0 1-11.135208 2.302748z" fill="#d6204b" p-id="4665" data-spm-anchor-id="a313x.search_index.0.i15.1dad3a815Jt0qq" class=""></path><path d="M916.756006 380.965419L524.216279 551.05335 131.645008 380.965419 524.216279 210.845945z" fill="#ffffff" p-id="4666" data-spm-anchor-id="a313x.search_index.0.i12.1dad3a815Jt0qq" class="selected"></path><path d="M202.178505 380.965419l322.069319 139.552857 322.00623-139.552857-322.037775-139.552856L202.178505 380.965419z m310.902567 195.828241L120.509801 406.674185a28.043058 28.043058 0 0 1 0-51.417531L513.081072 185.137179a27.759158 27.759158 0 0 1 22.270415 0l392.571271 170.119475a28.011514 28.011514 0 0 1 0 51.417531L535.351487 576.79366a27.885336 27.885336 0 0 1-22.270415 0z" fill="#d6204b" p-id="4667" data-spm-anchor-id="a313x.search_index.0.i13.1dad3a815Jt0qq" class=""></path></svg>